<svg width="200" height="80" viewBox="0 0 200 80" fill="none" xmlns="http://www.w3.org/2000/svg">
  <!-- Ícone de Calendário -->
  <g transform="translate(10, 15)">
    <rect x="2" y="6" width="20" height="18" rx="2" stroke="#075E54" stroke-width="2" fill="none"/>
    <line x1="2" y1="10" x2="22" y2="10" stroke="#075E54" stroke-width="2"/>
    <circle cx="7" cy="15" r="1.5" fill="#075E54"/>
    <circle cx="12" cy="15" r="1.5" fill="#075E54"/>
    <circle cx="17" cy="15" r="1.5" fill="#075E54"/>
    <circle cx="7" cy="20" r="1.5" fill="#075E54"/>
    <circle cx="12" cy="20" r="1.5" fill="#075E54"/>
    <circle cx="17" cy="20" r="1.5" fill="#075E54"/>
    <line x1="6" y1="6" x2="6" y2="3" stroke="#075E54" stroke-width="2" stroke-linecap="round"/>
    <line x1="18" y1="6" x2="18" y2="3" stroke="#075E54" stroke-width="2" stroke-linecap="round"/>
  </g>
  
  <!-- Relógio pequeno -->
  <g transform="translate(28, 18)">
    <circle cx="0" cy="0" r="6" stroke="#075E54" stroke-width="1.5" fill="none"/>
    <line x1="0" y1="0" x2="0" y2="-3" stroke="#075E54" stroke-width="1.5"/>
    <line x1="0" y1="0" x2="2" y2="0" stroke="#075E54" stroke-width="1.5"/>
  </g>
  
  <!-- Texto ASTRA AGENDA -->
  <text x="48" y="35" font-family="Arial, sans-serif" font-size="24" font-weight="bold" fill="#075E54">ASTRA</text>
  <text x="48" y="55" font-family="Arial, sans-serif" font-size="24" font-weight="bold" fill="#075E54">AGENDA</text>
  
  <!-- Estrelas decorativas -->
  <g transform="translate(160, 20)">
    <polygon points="0,-8 2,-2 8,-2 3,2 5,8 0,4 -5,8 -3,2 -8,-2 -2,-2" fill="#075E54"/>
  </g>
  <g transform="translate(175, 15)" opacity="0.7">
    <polygon points="0,-5 1.5,-1.5 5,-1.5 2,1 3,5 0,2.5 -3,5 -2,1 -5,-1.5 -1.5,-1.5" fill="#25D366"/>
  </g>
  <g transform="translate(185, 25)" opacity="0.5">
    <polygon points="0,-3 1,-1 3,-1 1.5,0.5 2,3 0,1.5 -2,3 -1.5,0.5 -3,-1 -1,-1" fill="#25D366"/>
  </g>
  
  <!-- Linha curva decorativa -->
  <path d="M 165 25 Q 175 30, 185 28" stroke="#075E54" stroke-width="1.5" fill="none" opacity="0.6"/>
</svg>
